<?xml version="1.0" ?><!DOCTYPE svg  PUBLIC '-//W3C//DTD SVG 1.1//EN'  'http://www.w3.org/Graphics/SVG/1.1/DTD/svg11.dtd'><svg height="100%" style="fill-rule:evenodd;clip-rule:evenodd;stroke-linejoin:round;stroke-miterlimit:2;" version="1.1" viewBox="0 0 32 32" width="100%" xml:space="preserve" xmlns="http://www.w3.org/2000/svg" xmlns:serif="http://www.serif.com/" xmlns:xlink="http://www.w3.org/1999/xlink"><path d="M3,20l0,5.997c-0,0.796 0.316,1.559 0.879,2.121c0.562,0.563 1.325,0.879 2.121,0.879l0.003,-0l0,-1.997l-1.003,-0c-0.552,0 -1,-0.448 -1,-1c-0,-0.552 0.448,-1 1,-1c0,-0 3,-0 3,-0c0.552,-0 1,-0.448 1,-1c0,-0.552 -0.448,-1 -1,-1c-0,-0 -2,0 -2,0c-1.656,0 -3,-1.344 -3,-3Zm0,-0c0,-1.656 1.344,-3 3,-3l0.003,0l0,-1c0,-0.552 0.449,-1 1,-1c0.552,-0 1,0.448 1,1l0,1l0.997,0c0.552,0 1,0.448 1,1c-0,0.552 -0.448,1 -1,1l-3,0c-0.552,0 -1,0.448 -1,1c0,0.552 0.448,1 1,1c0,0 2,-0 2,-0c1.656,-0 3,1.344 3,3c0,1.655 -1.342,2.998 -2.997,3l0,1.997l17.987,-0c1.657,-0 3,-1.343 3,-3l0,-15.059l-25.99,0.053l0,9.009Zm20.99,2.5c-0.69,0 -1.25,0.56 -1.25,1.25c0,0.69 0.56,1.25 1.25,1.25c0.69,0 1.25,-0.56 1.25,-1.25c0,-0.69 -0.56,-1.25 -1.25,-1.25Zm-4,0c-0.69,0 -1.25,0.56 -1.25,1.25c0,0.69 0.56,1.25 1.25,1.25c0.69,0 1.25,-0.56 1.25,-1.25c0,-0.69 -0.56,-1.25 -1.25,-1.25Zm-4,0c-0.69,0 -1.25,0.56 -1.25,1.25c0,0.69 0.56,1.25 1.25,1.25c0.69,0 1.25,-0.56 1.25,-1.25c0,-0.69 -0.56,-1.25 -1.25,-1.25Zm8,-4.75c-0.69,0 -1.25,0.56 -1.25,1.25c0,0.69 0.56,1.25 1.25,1.25c0.69,0 1.25,-0.56 1.25,-1.25c0,-0.69 -0.56,-1.25 -1.25,-1.25Zm-4,0c-0.69,0 -1.25,0.56 -1.25,1.25c0,0.69 0.56,1.25 1.25,1.25c0.69,0 1.25,-0.56 1.25,-1.25c0,-0.69 -0.56,-1.25 -1.25,-1.25Zm-4,0c-0.69,0 -1.25,0.56 -1.25,1.25c0,0.69 0.56,1.25 1.25,1.25c0.69,0 1.25,-0.56 1.25,-1.25c0,-0.69 -0.56,-1.25 -1.25,-1.25Zm8,-4.75c-0.69,0 -1.25,0.56 -1.25,1.25c0,0.69 0.56,1.25 1.25,1.25c0.69,0 1.25,-0.56 1.25,-1.25c0,-0.69 -0.56,-1.25 -1.25,-1.25Zm-4,0c-0.69,0 -1.25,0.56 -1.25,1.25c0,0.69 0.56,1.25 1.25,1.25c0.69,0 1.25,-0.56 1.25,-1.25c0,-0.69 -0.56,-1.25 -1.25,-1.25Zm-4,0c-0.69,0 -1.25,0.56 -1.25,1.25c0,0.69 0.56,1.25 1.25,1.25c0.69,0 1.25,-0.56 1.25,-1.25c0,-0.69 -0.56,-1.25 -1.25,-1.25Zm-4,0c-0.69,0 -1.25,0.56 -1.25,1.25c0,0.69 0.56,1.25 1.25,1.25c0.69,0 1.25,-0.56 1.25,-1.25c0,-0.69 -0.56,-1.25 -1.25,-1.25Zm-4.971,-9.993l-1.019,-0c-1.657,-0 -3,1.343 -3,3l0,2.984l25.99,-0.053l0,-2.931c0,-1.657 -1.343,-3 -3,-3l-1,-0l0,2.993c0,0.552 -0.448,1 -1,1c-0.552,-0 -1,-0.448 -1,-1l0,-2.993l-2,-0l0,2.993c0,0.552 -0.448,1 -1,1c-0.552,-0 -1,-0.448 -1,-1l0,-2.993l-1.99,-0l-0,2.993c0,0.552 -0.448,1 -1,1c-0.552,0 -1,-0.448 -1,-1l-0,-2.993l-1.99,-0l-0,2.99c-0,0.552 -0.448,1 -1,1c-0.552,-0 -1,-0.448 -1,-1l-0,-2.99l-1.991,-0l0,2.99c0,0.552 -0.448,1 -1,1c-0.552,-0 -1,-0.448 -1,-1l0,-2.99Z"/></svg>